# xmcd
#
# Track frame offsets: 
#        183
#        12433
#        26785
#        40370
#        53820
#        70705
#        87508
#        100780
#        116125
#        127775
#        142533
#        164045
#        182210
#        201588
#
# Disc length: 2901 seconds
#
# Revision: 6
# Processed by: cddbd v1.5.1PL0 Copyright (c) Steve Scherf et al.
# Submitted via: ExactAudioCopy v0.95a5
#
DISCID=c50b530e
DTITLE=Dwight Yoakam - If There Was A Way
DYEAR=1990
DGENRE=Country
TTITLE0=The Distance Between You And Me
TTITLE1=The Heart That You Own
TTITLE2=Takes A Lot To Rock You
TTITLE3=Nothing's Changed Here
TTITLE4=Sad, Sad Music
TTITLE5=Since I Started Drinkin' Again
TTITLE6=If There Was A Way
TTITLE7=Turn It On, Turn It Up, Turn Me Loose
TTITLE8=It Only Hurts When I Cry
TTITLE9=Send A Message To My Heart
TTITLE10=I Don't Need It Done
TTITLE11=You're The One
TTITLE12=Dangerous Man
TTITLE13=Let's Work Together
EXTD=YEAR: 1990 ID3G:   2
EXTT0=
EXTT1=
EXTT2=
EXTT3=
EXTT4=
EXTT5=
EXTT6=
EXTT7=
EXTT8=
EXTT9=
EXTT10=
EXTT11=
EXTT12=
EXTT13=
PLAYORDER=
